<svg xmlns="http://www.w3.org/2000/svg" viewBox="0 0 64 64" role="img" aria-labelledby="title">
  <title id="title">Dogshit Duo Devices</title>
  <rect width="64" height="64" fill="#111a1e"/>
  <rect width="6" height="64" fill="#e05235"/>
  <path fill="#f4f2ec" fill-rule="evenodd" d="M9 18h6.5C22 18 25 23 25 32s-3 14-9.5 14H9V18Zm5 5v18h1.5c3.2 0 4.5-2.8 4.5-9s-1.3-9-4.5-9H14Zm12-5h6.5C39 18 42 23 42 32s-3 14-9.5 14H26V18Zm5 5v18h1.5c3.2 0 4.5-2.8 4.5-9s-1.3-9-4.5-9H31Zm12-5h6.5C56 18 59 23 59 32s-3 14-9.5 14H43V18Zm5 5v18h1.5c3.2 0 4.5-2.8 4.5-9s-1.3-9-4.5-9H48Z"/>
</svg>
