<svg xmlns="http://www.w3.org/2000/svg" viewBox="0 0 640 240" preserveAspectRatio="none" fill="none">
  <g data-stage="decision-story" transform="translate(106 0)">
    <rect x="-94" y="36" width="188" height="168" stroke="#111a1e" stroke-width="4"/>
    <path d="M-74 88H74M-74 152H74" stroke="#35666b" stroke-width="4"/>
    <path d="m-28 70 28 32m0-32-28 32" stroke="#e05235" stroke-width="7"/>
  </g>
  <g data-stage="stakeholder-pathway" transform="translate(320 0)">
    <rect x="-94" y="36" width="188" height="168" stroke="#111a1e" stroke-width="4"/>
    <path d="M-74 88H74M-74 152H74" stroke="#35666b" stroke-width="4"/>
    <path d="m-28 132 28 32m0-32-28 32" stroke="#e05235" stroke-width="7"/>
  </g>
  <g data-stage="field-transfer" transform="translate(534 0)">
    <rect x="-94" y="36" width="188" height="168" stroke="#111a1e" stroke-width="4"/>
    <path d="M-74 88H74M-74 152H74" stroke="#35666b" stroke-width="4"/>
    <path d="m-28 70 28 32m0-32-28 32" stroke="#e05235" stroke-width="7"/>
  </g>
</svg>
